<svg xmlns="http://www.w3.org/2000/svg" viewBox="0 0 1233.69 908.26"><defs><style>.cls-1{fill:#5e96bd;}.cls-2{fill:#010101;}</style></defs><g id="Layer_2" data-name="Layer 2"><g id="Layer_1-2" data-name="Layer 1"><path class="cls-1" d="M538.69,443.75c-13.62-29.2-26.71-57.32-39.87-85.41-6.84-14.6-13.95-29.07-20.62-43.74a28.23,28.23,0,0,1-2.78-11.37q.29-92.46,1-184.91c.13-19.14.56-38.28.7-57.42.22-30.15,23.37-56,53.12-60.3,33.83-4.93,65,21.12,68.38,53.27.77,7.36.09,14.87.07,22.31-.06,24.17,0,48.33-.2,72.5-.18,27.31-.54,54.61-.79,81.92-.07,6.61,0,6.67,6.22,5.11,24.45-6.11,49.37-7.34,74.3-5.61a243.27,243.27,0,0,1,99.63,29c18.89,10.19,36.69,22.16,51.69,37.65,11,11.4,21.23,23.61,31.82,35.44a14.11,14.11,0,0,0,1.65,1.35c4.51-5.43,8.62-11.06,13.42-16,10.6-11,21-22.23,32.49-32.13a216.42,216.42,0,0,1,49.81-31.69c23.92-11.16,48.78-19.44,75.14-21.84,16.52-1.5,33.23-2.44,49.78-1.74a204.6,204.6,0,0,1,71.13,15.6,479,479,0,0,1,50,24.49c15.84,9,24.68,23.73,27.85,41.66,3.71,21-1.72,39.69-16.12,55.21a59.06,59.06,0,0,1-33.61,18.07c-17.39,3.09-32.95-1.57-47.21-11-25.19-16.68-53-22.74-82.61-19.9-32.78,3.14-60.12,18.06-81.9,42.66C959.78,409.73,952.47,425,946.54,441c-2.71,7.29-6.31,14.26-9.64,21.31-15.12,32-30.34,63.94-45.41,95.95-11.25,23.89-22.12,48-33.65,71.72-2.46,5.08-6.78,9.38-10.67,13.64A280.53,280.53,0,0,1,804,682.46c-24.86,17.86-52.22,30.27-81.63,38.14-24.07,6.44-48.69,8.54-73.59,7.62a248.24,248.24,0,0,1-145.24-54.36c-15.87-12.73-30.25-26.92-42.23-43.31-4.73-6.47-7.92-14.12-11.42-21.42-6.18-12.87-12-25.93-18.06-38.85q-22.29-47.34-44.69-94.64c-8.42-17.87-15.73-36.35-25.25-53.61C342,386,312,362.09,270.79,355.4c-36.5-5.93-70.33,2-99.7,25.43-24.92,19.9-40.46,45.8-45.36,77.16-6,38.17,2.89,73.2,28.24,102.74C174.32,584.44,200.35,599,231.8,603c28.39,3.62,55.23-.88,80.21-15.08,6-3.43,11.46-8,17.63-11.08,26.75-13.46,61.83-2.7,76.94,23.08,13.1,22.37,13,44.8.34,67.08a54.52,54.52,0,0,1-21.77,21.26c-12.1,6.52-23.86,13.76-36.31,19.51A206,206,0,0,1,283.43,726a398.67,398.67,0,0,1-44.78,2c-26.64-.26-52.34-6.2-77.25-15.43a240.92,240.92,0,0,1-63.7-35.39A255.3,255.3,0,0,1,46.91,625a245.17,245.17,0,0,1-39-82.82C.47,514-1.44,485.26,1,456.17a247.59,247.59,0,0,1,17.36-71.81c8.7-21.67,20.12-41.92,35.17-59.81A346.77,346.77,0,0,1,83.46,292.7a231.14,231.14,0,0,1,63-41.12,253.52,253.52,0,0,1,64.68-19.23,259.19,259.19,0,0,1,60.66-1.79,242.27,242.27,0,0,1,61.6,13.38,245.85,245.85,0,0,1,71,39.44c17.28,13.69,32.22,29.56,45.68,46.91a44.43,44.43,0,0,1,4.79,8.66c8.6,18.62,17,37.33,25.69,55.91,9.67,20.68,19.67,41.22,29.4,61.88,11.28,24,22.33,48,33.66,72,15.77,33.32,40.16,57.79,75.66,69,42.7,13.52,82.72,7.13,118.37-20.67,25.15-19.61,40.5-45.74,45.41-77.1,6-38.17-2.89-73.2-28.24-102.74C734.49,373.51,708.46,359,677,355c-37.26-4.81-70.6,4.47-99.32,28.49a119.74,119.74,0,0,0-36.32,52.78C540.61,438.41,539.82,440.58,538.69,443.75Z"/><path class="cls-1" d="M1069.43,728.3c-45.07.45-84.58-9.82-121.51-29.63-10.4-5.58-21.43-10.14-30.36-18.66-22.39-21.35-25.46-59.15-7.19-83.73,20.13-27.08,59-31.86,85.69-12.84a110.21,110.21,0,0,0,52.63,19.6c20.57,2.18,40.85,1.61,60.23-6.14,9.64-3.86,19.42-8.18,27.81-14.15,24.8-17.65,60.26-14.22,80.61,8.74a64.24,64.24,0,0,1,4,80.09c-7.61,10.68-18.49,16.93-29.4,23.27a247.15,247.15,0,0,1-62,25.49C1109.18,725.77,1088,728.88,1069.43,728.3Z"/><path class="cls-2" d="M699.22,835.78c-4.24,2.17-8.36,4.6-12.73,6.46-15.9,6.81-27.35-2.54-29.18-18.88-2.93-26.3,14.78-48.78,39.45-55.08,9.91-2.53,19.9-1.29,26.34,4.89,6.54-.54,11.57-1.82,16.3-1.1,4.9.74,6,4.55,3.69,9-6.94,13.34-14,26.62-21,39.94-.73,1.39-1.32,2.86-2.57,5.63,8-4.37,14.52-8.5,21.49-11.58,7.39-3.27,12.27-7.72,15.71-15.53,6.87-15.62,18.49-27.07,35.84-30.86,10.59-2.31,21.16-2.55,30.17,5.17,8.17,7,7.76,15.84,5.48,25.17-.56,2.29-3.65,5.37,0,6.91,2.64,1.12,6.84,1.36,9.15,0,5.49-3.25,10.37-7.57,15.28-11.71,2.92-2.46,5.36-5.49,8.19-8.06,1.09-1,3.36-2.32,3.91-1.9,1.31,1,2.81,3,2.6,4.39-.53,3.34-1.1,7.34-3.22,9.64a283.5,283.5,0,0,1-22,21.45c-5.68,5-12.55,5.84-19.4,2.06-2.84-1.57-3.78.14-5.1,2a55,55,0,0,1-35.4,22.6c-14.49,2.79-26.78-.49-33-18a144.77,144.77,0,0,0-38,21.6c-2.66,2.1-4,5.93-5.74,9.11-6.75,12.67-13.28,25.46-20.16,38.06-2.81,5.15-5.44,10.91-12.73,11.09-5.87.14-9.47-3.16-9.48-9,0-10.1,4.83-18.61,10.18-26.5,7.58-11.18,16.14-21.69,24.26-32.51.88-1.18,1.58-2.51,2.37-3.77,0-.42.07-.84.11-1.26ZM807.5,799c.14-10.5-4.5-14.8-13.8-12.78-14.21,3.07-25.05,21.63-20.75,35.5,1.74,5.6,5.17,7.76,10.92,6.88C796.5,826.7,807.29,813.18,807.5,799Zm-105.89-14c-15.61.83-30.09,20.9-25.51,35.61,2,6.5,7.67,8.37,13.83,4,9.65-6.83,16.91-15.87,22.57-26.2,1.88-3.44,1.26-6.65-1.88-8.79C707.85,787.79,704.63,786.56,701.61,785.05Z"/><path class="cls-2" d="M505.94,830.17c-10.31,5.26-20.11,10.63-30.25,15.24-3.46,1.57-7.78,1.76-11.69,1.68-10-.21-14.34-6.53-13.36-15.28.76-6.76,3.16-13.5,5.77-19.87,3.54-8.68,8-17,12.34-26.11-2.1-.21-3.66-.45-5.23-.51-6.3-.24-9.3-2.06-9.48-5.83-.18-4,4.82-8.33,9.95-8.59a33.49,33.49,0,0,1,6.49,0c3.91.56,6-1,7.66-4.55,6.24-13,12.78-25.76,19.2-38.62,2.47-5,5.75-8.85,11.81-9.15,7.82-.4,11.31,4.38,7.94,11.4-3.65,7.59-7.75,15-11.72,22.39-3.1,5.81-6.32,11.56-9.82,17.94a35.63,35.63,0,0,0,4.09.51c9.16,0,18.48-1,27.45.29,10.62,1.54,20-3.39,30.14-3.63,7.48-.19,14.62.65,20.67,5.5,8.66,6.94,8.87,16,6.42,25.79-.6,2.4-3.6,5,0,7.49,3.38,2.3,6.91,1.53,9.73-.61,6.16-4.68,12-9.78,17.94-14.77,1.27-1.07,2.21-2.54,3.54-3.51a61.21,61.21,0,0,1,5.5-3.21c.66,2.7,1.89,5.42,1.81,8.1a10.13,10.13,0,0,1-2.76,6.22c-7.32,7.39-14.66,14.81-22.53,21.6-5.41,4.67-12.06,5.38-18.53,1.8-3-1.65-4,0-5.49,2C563,838.16,549,846.27,531.17,847.1c-12.17.57-19.55-4.25-24.61-15.38C506.23,831,506,830.23,505.94,830.17Zm14.2-45c-9.5,0-19.41-.06-29.31.08a4,4,0,0,0-3,1.87c-5.34,10.84-10.71,21.67-15.61,32.71-1.08,2.44-.37,5.67-.49,8.54,2.85-.33,6.11.12,8.45-1.14,8-4.29,15.85-9,23.43-14,2.4-1.59,4.15-4.5,5.61-7.13C513,799.3,516.42,792.34,520.14,785.14Zm43.36,13.74c.11-10.43-4.65-14.72-14-12.6-13.79,3.14-24.5,20.91-20.92,34.68,1.64,6.3,5.44,8.71,11.88,7.54C553,826.25,563.35,812.84,563.5,798.88Z"/></g></g></svg>