<svg xmlns="http://www.w3.org/2000/svg" xmlns:xlink="http://www.w3.org/1999/xlink" width="125.342" height="114.541" viewBox="0 0 125.342 114.541">
  <defs>
    <clipPath id="clip-path">
      <path id="Path_25" data-name="Path 25" d="M0,0H10.242V6.34L3.675,4.718,0,6.34Z" transform="translate(0 0)" fill="#fff" stroke="#707070" stroke-width="1"/>
    </clipPath>
    <clipPath id="clip-path-2">
      <rect id="Rectangle_10" data-name="Rectangle 10" width="124.654" height="19.455" fill="#fff" stroke="#707070" stroke-width="1"/>
    </clipPath>
  </defs>
  <g id="Group_2" data-name="Group 2" transform="matrix(1, -0.017, 0.017, 1, 1670.976, 281.747)">
    <g id="Group_1" data-name="Group 1" transform="translate(-1667.442 -309.42)">
      <line id="Line_1" data-name="Line 1" x2="123.396" transform="translate(1.604 92.394)" stroke="#231f20" stroke-miterlimit="10" stroke-width="1"/>
      <line id="Line_2" data-name="Line 2" x2="123.396" transform="translate(1.604 112.611)" stroke="#231f20" stroke-miterlimit="10" stroke-width="1"/>
      <g id="gearhead-logo-04" transform="translate(32 0)">
        <g id="Layer_1" data-name="Layer 1" transform="translate(0 0)">
          <path id="Path_1" data-name="Path 1" d="M1434.749,1753.546c-3.379-.16-5.154,7.8-5.625,10.473-.244,1.405-.642,3.539-.986,5.463-1.706-1.913-4.756-1.841-7.4-.979a2.134,2.134,0,0,0-1.438-.875,47.009,47.009,0,0,0-7.306,1.6c-4.082-1.337-8.132-2.149-12.185-3.229a5.579,5.579,0,0,0-3.439,3.062,6.981,6.981,0,0,0-6.472-.907c-.178-.977-.341-1.887-.465-2.607-.523-2.959-2.642-12.382-6.76-10.13,3.208-3.083,10.8-6.353,16-7.891-.1,1.652,3.129,3.458,5.2,4.667a9.28,9.28,0,0,0,12.109,0c2.069-1.21,5.3-3.013,5.2-4.667A57.264,57.264,0,0,1,1434.749,1753.546Z" transform="translate(-1379.114 -1701.141)" fill="#127ad4"/>
          <path id="Path_2" data-name="Path 2" d="M1428.013,1889.883a15.614,15.614,0,0,0-6.845-.964c-2.329.052-4.644.3-6.97.407-6.561.292-13.354-4.467-19.687-1.092a.133.133,0,0,1-.157-.045c-2.76-4.2-3.05-10.448-7.637-13.179a21.121,21.121,0,0,0-4.067,2.876c4.117-2.253,6.237,7.171,6.76,10.13.125.72.287,1.63.466,2.607a6.982,6.982,0,0,1,6.473.907,5.579,5.579,0,0,1,3.438-3.062c4.052,1.08,8.1,1.892,12.184,3.229a47.039,47.039,0,0,1,7.307-1.605,2.131,2.131,0,0,1,1.438.875c2.647-.861,5.7-.934,7.4.98.107-.6.219-1.219.331-1.834A4.692,4.692,0,0,0,1428.013,1889.883Z" transform="translate(-1379.095 -1823.606)" fill="#fc7b3a" opacity="0.1"/>
          <g id="Group_59084" data-name="Group 59084" transform="translate(19.552 43.404)">
            <path id="Path_3" data-name="Path 3" d="M2241.382,1674.691c-.032.024-.062.048-.1.076a5.342,5.342,0,0,1-1.755-3.127,7.975,7.975,0,0,1,2.772.787A2.383,2.383,0,0,1,2241.382,1674.691Z" transform="translate(-2221.819 -1671.64)" fill="#ef5e25"/>
            <path id="Path_4" data-name="Path 4" d="M1844.177,1671.64a5.366,5.366,0,0,1-1.749,3.127c-.035-.025-.068-.052-.1-.076a2.071,2.071,0,0,1-.755-2.345A7.992,7.992,0,0,1,1844.177,1671.64Z" transform="translate(-1839.384 -1671.64)" fill="#ef5e25"/>
            <path id="Path_5" data-name="Path 5" d="M1811.808,1691.87c.1,1.652-3.132,3.458-5.2,4.667a9.28,9.28,0,0,1-12.109,0c-2.068-1.21-5.3-3.013-5.2-4.667a1.2,1.2,0,0,1,.054-.294,3.771,3.771,0,0,1,2.133-1.985,2.072,2.072,0,0,0,.755,2.345c.032.024.065.052.1.076a34.2,34.2,0,0,0,8.208,4.4,34.286,34.286,0,0,0,8.214-4.4l.1-.076a2.379,2.379,0,0,0,.921-2.264,3.623,3.623,0,0,1,1.971,1.9A1.263,1.263,0,0,1,1811.808,1691.87Z" transform="translate(-1789.299 -1688.884)" fill="#ff974a"/>
          </g>
          <path id="Path_6" data-name="Path 6" d="M1336.309,1962.755a64.932,64.932,0,0,1-11.183,4.527,83.856,83.856,0,0,1-11.556,2.964c-2.6.382-6.928,1.5-10.889,1.345-4.344-.165-8.248-1.851-8.949-7.7v-.006c-2.136-7.969-2.164-21.031,1.7-23.871a4.256,4.256,0,0,1,.46-.3c4.117-2.253,6.237,7.171,6.76,10.13.125.72.287,1.63.466,2.607.446,2.45.975,5.311,1.137,6.595,1.343-.349,2.737-.7,4.17-1.059,3.5-.872,7.233-1.781,11.01-2.818.687-.187,3.132-.92,5.777-1.643a47.016,47.016,0,0,1,7.306-1.6,2.128,2.128,0,0,1,1.438.875,11.077,11.077,0,0,1,1.967,3.5,14.9,14.9,0,0,1,.479,1.589c.095.46.193.964.268,1.468,0,.011,0,.018,0,.027C1336.9,1960.893,1336.949,1962.39,1336.309,1962.755Z" transform="translate(-1292.288 -1885.44)" fill="#127ad4"/>
          <path id="Path_7" data-name="Path 7" d="M2151.956,1924.833a16.2,16.2,0,0,1-2.019,4.913l0,0a7.683,7.683,0,0,1-4.3,2.621c-.439.067-.878.122-1.311.165-6.479.645-12.515-1.3-18.535-2.677a64.731,64.731,0,0,0,11.183-4.526c.639-.365.591-1.862.363-3.373,0-.008,0-.016,0-.027a14.11,14.11,0,0,0-.268-1.468c-.133-.63-.268-1.186-.358-1.557,1.57.39,3.135.78,4.7,1.189.1-.8.344-2.2.617-3.737.344-1.924.741-4.058.986-5.463.472-2.677,2.247-10.633,5.625-10.473h0a2.96,2.96,0,0,1,1.592.636C2154.083,1903.889,2154.065,1916.856,2151.956,1924.833Z" transform="translate(-2093 -1848.016)" fill="#127ad4"/>
          <path id="Path_8" data-name="Path 8" d="M1718.067,2220.349c-2.645.723-5.089,1.456-5.777,1.644-3.777,1.037-7.514,1.946-11.01,2.818a14.049,14.049,0,0,1,1.164-4.629,5.578,5.578,0,0,1,3.438-3.062C1709.935,2218.2,1713.985,2219.012,1718.067,2220.349Z" transform="translate(-1685.191 -2152.257)" fill="#127ad4"/>
          <path id="Path_9" data-name="Path 9" d="M2357.625,2267.469c-.273,1.538-.514,2.943-.617,3.737-1.565-.409-3.129-.8-4.7-1.189l-.122-.032a11.06,11.06,0,0,0-1.967-3.5C2352.869,2265.628,2355.92,2265.555,2357.625,2267.469Z" transform="translate(-2308.602 -2199.128)" fill="#fbd8c1"/>
          <path id="Path_10" data-name="Path 10" d="M1572.841,2262.008a14.093,14.093,0,0,0-1.164,4.629c-1.435.358-2.829.708-4.17,1.059-.162-1.284-.69-4.145-1.137-6.6A6.968,6.968,0,0,1,1572.841,2262.008Z" transform="translate(-1555.588 -2194.082)" fill="#fbd8c1"/>
          <path id="Path_11" data-name="Path 11" d="M1596.2,2651.4c-.7,2.042-1.1,4.245-1.714,6.468h-38.05c-.455-1.64-.791-3.272-1.22-4.835,3.961.149,8.286-.964,10.888-1.345a84.044,84.044,0,0,0,11.557-2.964C1583.687,2650.095,1589.723,2652.042,1596.2,2651.4Z" transform="translate(-1544.876 -2566.878)" fill="#127ad4"/>
          <path id="Path_12" data-name="Path 12" d="M1566.742,2653.749c2.03-.466,4.035-1.028,6.047-1.564a13.018,13.018,0,0,1,3.6-.637,26.218,26.218,0,0,1,7.4,1.606c3.342,1.063,7.865,2.854,11.471,1.839.3-1.233.6-2.439.992-3.6-6.479.645-12.515-1.3-18.536-2.677a83.844,83.844,0,0,1-11.557,2.964c-2.6.382-6.927,1.5-10.888,1.346.118.432.229.869.337,1.31A26.546,26.546,0,0,0,1566.742,2653.749Z" transform="translate(-1544.925 -2566.878)" fill="#fc7b3a" opacity="0.1"/>
          <path id="Path_13" data-name="Path 13" d="M1726.379,1416.58a1.894,1.894,0,0,1,.088.272,1.957,1.957,0,0,1,.092.27.567.567,0,0,1-.136-.255A.618.618,0,0,1,1726.379,1416.58Z" transform="translate(-1709.297 -1383.21)" fill="#ae7046"/>
          <path id="Path_14" data-name="Path 14" d="M1567.123,2260.9a.352.352,0,0,1-.057-.05l-.066-.062-.039-.04-.05-.043-.118-.1-.144-.114c-.1-.079-.228-.167-.369-.254a5.326,5.326,0,0,0-1.053-.494q-.326-.109-.662-.187c-.233-.052-.476-.1-.727-.126s-.5-.048-.737-.055-.47,0-.689.01a8.18,8.18,0,0,0-1.156.148,6.877,6.877,0,0,0-.761.2c-.089.027-.157.052-.2.068a.367.367,0,0,1-.072.021.375.375,0,0,1,.068-.032c.046-.018.112-.048.2-.079a5.9,5.9,0,0,1,.76-.219,7.8,7.8,0,0,1,1.162-.162c.221-.013.453-.018.693-.013a7.437,7.437,0,0,1,.742.055,7.166,7.166,0,0,1,.733.128,6.328,6.328,0,0,1,.667.193,5.086,5.086,0,0,1,1.057.511,4.385,4.385,0,0,1,.367.263l.142.118.113.107.048.046.039.042.062.067A.35.35,0,0,1,1567.123,2260.9Z" transform="translate(-1549.68 -2192.792)" fill="#f2ae8b"/>
          <path id="Path_15" data-name="Path 15" d="M2351.913,2261.709a.5.5,0,0,1-.045-.07l-.053-.088a1.2,1.2,0,0,0-.071-.118c-.032-.042-.061-.091-.1-.143l-.027-.039-.031-.04-.065-.084c-.023-.029-.046-.06-.071-.09l-.081-.089-.086-.095-.1-.093a3.374,3.374,0,0,0-.475-.37,3.834,3.834,0,0,0-.619-.31,4.518,4.518,0,0,0-.736-.206,5.362,5.362,0,0,0-.817-.081,6.086,6.086,0,0,0-.823.033c-.133.012-.262.032-.388.05-.064.01-.125.022-.187.032l-.092.017-.09.019c-.241.046-.465.107-.675.165-.1.032-.205.061-.3.093s-.189.062-.276.094c-.348.126-.624.245-.812.333-.095.042-.167.079-.216.1a.5.5,0,0,1-.079.033.426.426,0,0,1,.072-.043c.048-.026.118-.067.211-.113a8.084,8.084,0,0,1,.808-.352c.087-.034.18-.064.276-.1s.2-.063.3-.1c.211-.06.436-.123.678-.171l.091-.02.093-.017.189-.033c.127-.019.258-.039.393-.051a6.2,6.2,0,0,1,.83-.035,5.387,5.387,0,0,1,.826.084,4.49,4.49,0,0,1,.746.212,3.806,3.806,0,0,1,.625.319,3.247,3.247,0,0,1,.477.381l.1.1.086.1.081.092c.025.03.047.062.069.092l.065.086.03.039.026.041.093.147c.029.043.048.086.067.121l.046.09A.433.433,0,0,1,2351.913,2261.709Z" transform="translate(-2303.203 -2193.193)" fill="#f2ae8b"/>
          <g id="Group_59043" data-name="Group 59043" transform="translate(9.135)">
            <path id="Path_18" data-name="Path 18" d="M1827.837,861.45a10.156,10.156,0,1,1-10.157,10.156,10.155,10.155,0,0,1,10.157-10.156Zm-4.931,9.943a6.732,6.732,0,0,0,.327,2.11,5.037,5.037,0,0,0,.94,1.688,4.3,4.3,0,0,0,1.5,1.121,4.86,4.86,0,0,0,1.995.405,4.644,4.644,0,0,0,.989-.1,3.012,3.012,0,0,0,.781-.281,3.124,3.124,0,0,0,.637-.457,5.238,5.238,0,0,0,.56-.626l.091.5a.786.786,0,0,0,.178.419,1.038,1.038,0,0,0,.375.284,1.212,1.212,0,0,0,.483.1h.531v-5.583h-4.213v.654a1.082,1.082,0,0,0,.145.54,1.04,1.04,0,0,0,.38.38,1.07,1.07,0,0,0,.54.145h1.246a3.039,3.039,0,0,1-.433,1.125,2.281,2.281,0,0,1-.831.787,2.536,2.536,0,0,1-1.231.293,2.793,2.793,0,0,1-2.129-1.011,4.142,4.142,0,0,1-.687-2.609,4.046,4.046,0,0,1,.693-2.546,2.435,2.435,0,0,1,2.016-.846,2.516,2.516,0,0,1,1.286.309,2.134,2.134,0,0,1,.843.938,1.333,1.333,0,0,0,.414.4,1.008,1.008,0,0,0,.511.134h1.309a4.125,4.125,0,0,0-.385-1.554,3.359,3.359,0,0,0-.924-1.153,4.845,4.845,0,0,0-1.431-.684,6.016,6.016,0,0,0-1.686-.228,4.835,4.835,0,0,0-1.68.216,4.118,4.118,0,0,0-1.352.73,4.411,4.411,0,0,0-.993,1.159,5.474,5.474,0,0,0-.606,1.495,6.96,6.96,0,0,0-.191,1.742Z" transform="translate(-1806.146 -849.918)" fill="#404041" fill-rule="evenodd"/>
            <path id="Path_19" data-name="Path 19" d="M1827.846,861.45a10.119,10.119,0,0,1,7.2,2.994l-3.406,3.419a3.342,3.342,0,0,0-.784-.9,4.845,4.845,0,0,0-1.431-.685,6.02,6.02,0,0,0-1.687-.228,4.839,4.839,0,0,0-1.68.216,4.116,4.116,0,0,0-1.352.73,4.425,4.425,0,0,0-.994,1.159,5.48,5.48,0,0,0-.606,1.495,6.97,6.97,0,0,0-.191,1.741,6.739,6.739,0,0,0,.328,2.11,5.038,5.038,0,0,0,.94,1.688l.073.083-3.546,3.559a10.156,10.156,0,0,1,7.136-17.383Zm2.282,7.929-1.6,1.6h-.442v.445l-2.372,2.382a4.265,4.265,0,0,1-.624-2.523,4.059,4.059,0,0,1,.693-2.546,2.432,2.432,0,0,1,2.016-.846,2.518,2.518,0,0,1,1.286.309,2.138,2.138,0,0,1,.843.938,1.438,1.438,0,0,0,.2.236Z" transform="translate(-1806.156 -849.918)" fill="#515254" fill-rule="evenodd"/>
            <g id="Group_26" data-name="Group 26">
              <path id="Path_16" data-name="Path 16" d="M1550.148,571.944a18.421,18.421,0,0,1,6.087,2.541l3.091-1.817a32.4,32.4,0,0,1,4.269,4.3l-1.837,3.081a18.372,18.372,0,0,1,2.509,6.1l3.469.9a32.5,32.5,0,0,1-.017,6.055l-3.475.879a18.365,18.365,0,0,1-2.542,6.086l1.818,3.091a32.356,32.356,0,0,1-4.294,4.27l-3.08-1.836a18.384,18.384,0,0,1-6.1,2.508l-.9,3.471a32.5,32.5,0,0,1-6.055-.017l-.88-3.478a18.356,18.356,0,0,1-6.086-2.543l-3.091,1.819a32.474,32.474,0,0,1-4.269-4.293l1.835-3.082a18.357,18.357,0,0,1-2.509-6.1l-3.47-.9a32.378,32.378,0,0,1,.018-6.055l2.856-.723v1.712a1.485,1.485,0,0,0,1.45,1.515h1.986a23.035,23.035,0,0,0,.086,2.671l2.439.633a12.911,12.911,0,0,0,1.764,4.29l-1.291,2.167a22.991,22.991,0,0,0,3,3.02l2.174-1.279a12.907,12.907,0,0,0,4.28,1.787l.619,2.445a22.861,22.861,0,0,0,4.259.012l.632-2.439a12.93,12.93,0,0,0,4.288-1.763l2.168,1.291a22.816,22.816,0,0,0,3.018-3l-1.278-2.173a12.951,12.951,0,0,0,1.789-4.281l2.444-.618a22.96,22.96,0,0,0,.012-4.259l-2.441-.632a12.919,12.919,0,0,0-1.764-4.291l1.291-2.167a22.827,22.827,0,0,0-3-3.02l-2.175,1.279a12.936,12.936,0,0,0-4.279-1.788l-.619-2.445a22.823,22.823,0,0,0-4.257-.012l-.632,2.439a12.95,12.95,0,0,0-4.291,1.764L1537,577.76q-.3.246-.587.5a1.22,1.22,0,0,0-1.068-.643h-1.86a1.256,1.256,0,0,0-1.232,1.276v2.026a1.256,1.256,0,0,0,1.232,1.276h1.338l.436.741a12.916,12.916,0,0,0-1.788,4.281l-.4.1v-2.327a1.486,1.486,0,0,0-1.451-1.515h-2.752a18.428,18.428,0,0,1,1.784-3.524l-.584-.993h.576a1.985,1.985,0,0,0,1.925-2.032v-3.859q.275-.24.562-.472l3.081,1.836a18.367,18.367,0,0,1,6.1-2.508l.9-3.471a32.52,32.52,0,0,1,6.055.018l.88,3.475Z" transform="translate(-1524.49 -568.322)" fill="#2e5380" fill-rule="evenodd"/>
              <path id="Path_20" data-name="Path 20" d="M1742.909,826.374h-1.86a.524.524,0,0,1-.5-.544V823.8a.524.524,0,0,1,.5-.544h1.86a.524.524,0,0,1,.5.544v2.026A.524.524,0,0,1,1742.909,826.374Z" transform="translate(-1732.051 -813.231)" fill="#f5851f" fill-rule="evenodd"/>
              <path id="Path_21" data-name="Path 21" d="M1740.68,826.2a.57.57,0,0,1-.13-.366V823.8a.524.524,0,0,1,.5-.544h1.86a.494.494,0,0,1,.433.275l-2.661,2.662Z" transform="translate(-1732.051 -813.231)" fill="#f59b1d" fill-rule="evenodd"/>
              <path id="Path_22" data-name="Path 22" d="M1622.936,976.672h-2.678a.755.755,0,0,1-.718-.782v-2.917a.754.754,0,0,1,.718-.782h2.678a.757.757,0,0,1,.718.782v2.917A.753.753,0,0,1,1622.936,976.672Z" transform="translate(-1615.801 -956.302)" fill="#929497" fill-rule="evenodd"/>
              <path id="Path_23" data-name="Path 23" d="M1619.615,976.235a.823.823,0,0,1-.074-.346v-2.916a.754.754,0,0,1,.718-.782h2.678a.688.688,0,0,1,.5.223Z" transform="translate(-1615.801 -956.302)" fill="#a6a8ab" fill-rule="evenodd"/>
              <g id="Group_59083" data-name="Group 59083" transform="translate(0 0)">
                <path id="Path_17" data-name="Path 17" d="M1550.148,571.944a18.421,18.421,0,0,1,6.087,2.541l3.091-1.817q1.16.962,2.205,2.017l-4.543,4.56q-.742-.747-1.563-1.431l-2.175,1.279a12.935,12.935,0,0,0-4.28-1.788l-.621-2.446a22.823,22.823,0,0,0-4.257-.012l-.632,2.439a12.95,12.95,0,0,0-4.291,1.764L1537,577.76q-.3.246-.587.5a1.22,1.22,0,0,0-1.068-.643h-1.86a1.256,1.256,0,0,0-1.232,1.276v2.026a1.256,1.256,0,0,0,1.232,1.276h1.338l.436.741a12.916,12.916,0,0,0-1.788,4.281l-.4.1v-2.327a1.486,1.486,0,0,0-1.451-1.515h-2.752a18.428,18.428,0,0,1,1.784-3.524l-.584-.993h.576a1.985,1.985,0,0,0,1.925-2.032v-3.859q.275-.24.562-.472l3.081,1.836a18.367,18.367,0,0,1,6.1-2.508l.9-3.471a32.52,32.52,0,0,1,6.055.018l.88,3.475Zm-14.693,28.915-4.543,4.56q-1.124-1.12-2.147-2.36l1.836-3.082a18.36,18.36,0,0,1-2.509-6.1l-3.469-.9a32.378,32.378,0,0,1,.018-6.055l2.856-.723v1.712a1.485,1.485,0,0,0,1.45,1.515h1.986a23.035,23.035,0,0,0,.086,2.671l2.439.633a12.911,12.911,0,0,0,1.764,4.29l-1.291,2.167q.719.874,1.523,1.672Z" transform="translate(-1524.49 -568.322)" fill="#375f90" fill-rule="evenodd"/>
                <g id="Mask_Group_1" data-name="Mask Group 1" transform="translate(1.99 8.742) rotate(-45)" clip-path="url(#clip-path)">
                  <path id="Path_24" data-name="Path 24" d="M25.984,3.674a20.174,20.174,0,0,1,6.164,2.573l3.13-1.84q1.175.974,2.233,2.042l-4.6,4.618q-.751-.757-1.582-1.449l-2.2,1.3A13.1,13.1,0,0,0,24.792,9.1l-.629-2.477a23.113,23.113,0,0,0-4.311-.012l-.64,2.47a13.116,13.116,0,0,0-4.346,1.787L12.671,9.563q-.3.249-.595.507A1.235,1.235,0,0,0,11,9.419H9.111a1.272,1.272,0,0,0-1.247,1.292v2.052a1.272,1.272,0,0,0,1.247,1.292h1.355l.442.75A13.077,13.077,0,0,0,9.1,19.141l-.4.1V16.887a1.5,1.5,0,0,0-1.469-1.534H4.437a18.654,18.654,0,0,1,1.806-3.569l-.592-1.006h.583a2.01,2.01,0,0,0,1.95-2.058V4.813q.279-.243.569-.478l3.12,1.859a18.383,18.383,0,0,1,6.132-2.549L18.916.13a33.431,33.431,0,0,1,6.178.027l.891,3.519ZM11.1,32.955,6.5,37.573q-1.139-1.134-2.174-2.39l1.859-3.121a18.6,18.6,0,0,1-2.541-6.175L.135,24.971a32.788,32.788,0,0,1,.018-6.132l2.892-.732V19.84a1.5,1.5,0,0,0,1.469,1.534H6.525a23.335,23.335,0,0,0,.087,2.705l2.47.641a13.072,13.072,0,0,0,1.787,4.345L9.562,31.26A22.82,22.82,0,0,0,11.1,32.953Z" transform="translate(-17.109 1.369)" fill="#375f90" fill-rule="evenodd"/>
                </g>
              </g>
            </g>
          </g>
        </g>
      </g>
      <g id="Mask_Group_3" data-name="Mask Group 3" transform="translate(0 92.415)" clip-path="url(#clip-path-2)">
        <path id="Path_26" data-name="Path 26" d="M15.89-30.141A8.556,8.556,0,0,1,13.3-28.624a8.51,8.51,0,0,1-2.976.529A8.421,8.421,0,0,1,8.037-28.4a8.541,8.541,0,0,1-2.052-.872,8.892,8.892,0,0,1-1.744-1.349,8.4,8.4,0,0,1-1.349-1.744,8.769,8.769,0,0,1-.866-2.064,8.484,8.484,0,0,1-.308-2.29A8.358,8.358,0,0,1,2.027-39a8.822,8.822,0,0,1,.866-2.052A8.4,8.4,0,0,1,4.242-42.8a8.718,8.718,0,0,1,1.744-1.343A8.684,8.684,0,0,1,8.037-45a8.421,8.421,0,0,1,2.284-.308,8.51,8.51,0,0,1,2.976.529,8.556,8.556,0,0,1,2.593,1.517L14.147-40.36a5.6,5.6,0,0,0-1.744-1.2A5.1,5.1,0,0,0,10.322-42a5.074,5.074,0,0,0-2.052.419,5.464,5.464,0,0,0-1.68,1.134,5.343,5.343,0,0,0-1.139,1.674,5.074,5.074,0,0,0-.419,2.052,5.144,5.144,0,0,0,.419,2.069A5.4,5.4,0,0,0,6.59-32.966a5.413,5.413,0,0,0,1.68,1.139,5.074,5.074,0,0,0,2.052.419,4.922,4.922,0,0,0,1.221-.151,5.614,5.614,0,0,0,1.128-.419v-4.743h3.22Zm14,1.686H18.46V-45.126H29.888v3.337H21.8v3.337h5.476v3.337H21.8v3.325h8.091Zm12.149-6.662v-3.337a3.256,3.256,0,0,0-.262-1.3,3.359,3.359,0,0,0-.715-1.064A3.359,3.359,0,0,0,40-41.528a3.256,3.256,0,0,0-1.3-.262,3.256,3.256,0,0,0-1.3.262,3.359,3.359,0,0,0-1.064.715,3.359,3.359,0,0,0-.715,1.064,3.256,3.256,0,0,0-.262,1.3v3.337Zm3.337,6.662H42.037v-3.337H35.363v3.337H32.038v-10a6.5,6.5,0,0,1,.523-2.6,6.786,6.786,0,0,1,1.424-2.122A6.667,6.667,0,0,1,36.1-44.6a6.5,6.5,0,0,1,2.6-.523,6.5,6.5,0,0,1,2.6.523,6.737,6.737,0,0,1,2.122,1.43,6.737,6.737,0,0,1,1.43,2.122,6.5,6.5,0,0,1,.523,2.6ZM51.6-41.79v6.673h3.337a3.214,3.214,0,0,0,1.29-.262,3.377,3.377,0,0,0,1.058-.715A3.359,3.359,0,0,0,58-37.157a3.256,3.256,0,0,0,.262-1.3A3.256,3.256,0,0,0,58-39.75a3.359,3.359,0,0,0-.715-1.064,3.377,3.377,0,0,0-1.058-.715,3.214,3.214,0,0,0-1.29-.262Zm0,13.335H48.268V-45.126h6.673a6.505,6.505,0,0,1,1.767.238,6.632,6.632,0,0,1,1.587.674,6.766,6.766,0,0,1,1.349,1.046,6.693,6.693,0,0,1,1.046,1.354,6.742,6.742,0,0,1,.674,1.593,6.505,6.505,0,0,1,.238,1.767,6.524,6.524,0,0,1-.215,1.674,6.851,6.851,0,0,1-.616,1.546,6.527,6.527,0,0,1-.982,1.349,6.651,6.651,0,0,1-1.3,1.07l1.848,4.36H56.79l-1.453-3.36-3.732.023Zm15.52,0H63.788V-45.126h3.337v6.673h6.662v-6.673h3.337v16.671H73.786v-6.662H67.125Zm24.519,0H80.215V-45.126H91.643v3.337H83.552v3.337h5.476v3.337H83.552v3.325h8.091Zm12.149-6.662v-3.337a3.256,3.256,0,0,0-.262-1.3,3.359,3.359,0,0,0-.715-1.064,3.359,3.359,0,0,0-1.064-.715,3.256,3.256,0,0,0-1.3-.262,3.256,3.256,0,0,0-1.3.262,3.36,3.36,0,0,0-1.064.715,3.359,3.359,0,0,0-.715,1.064,3.256,3.256,0,0,0-.262,1.3v3.337Zm3.337,6.662h-3.337v-3.337H97.119v3.337H93.794v-10a6.5,6.5,0,0,1,.523-2.6,6.786,6.786,0,0,1,1.424-2.122,6.667,6.667,0,0,1,2.116-1.43,6.5,6.5,0,0,1,2.6-.523,6.5,6.5,0,0,1,2.6.523,6.737,6.737,0,0,1,2.122,1.43,6.736,6.736,0,0,1,1.43,2.122,6.5,6.5,0,0,1,.523,2.6Zm16.253-8.336a8.211,8.211,0,0,1-.3,2.215,8.227,8.227,0,0,1-.843,1.988,8.591,8.591,0,0,1-1.3,1.686,8.256,8.256,0,0,1-1.686,1.308,8.334,8.334,0,0,1-1.994.843,8.211,8.211,0,0,1-2.215.3h-5.022V-45.126h5.022a8.211,8.211,0,0,1,2.215.3,8.334,8.334,0,0,1,1.994.843,8.256,8.256,0,0,1,1.686,1.308,8.591,8.591,0,0,1,1.3,1.686,8.228,8.228,0,0,1,.843,1.988A8.211,8.211,0,0,1,123.381-36.791Zm-3.337,0a4.867,4.867,0,0,0-.389-1.941,5.025,5.025,0,0,0-1.07-1.587,5.089,5.089,0,0,0-1.593-1.075,4.847,4.847,0,0,0-1.947-.4h-1.662v10h1.662a4.909,4.909,0,0,0,1.947-.389,5.008,5.008,0,0,0,1.593-1.07,5.008,5.008,0,0,0,1.07-1.593A4.909,4.909,0,0,0,120.045-36.791Z" transform="translate(-0.019 46.827)" fill="#2e5380"/>
      </g>
    </g>
  </g>
</svg>
